<!DOCTYPE svg PUBLIC "-//W3C//DTD SVG 1.1//EN" "http://www.w3.org/Graphics/SVG/1.1/DTD/svg11.dtd">
<!-- Uploaded to: SVG Repo, www.svgrepo.com, Transformed by: SVG Repo Mixer Tools -->
<svg version="1.1" id="Icons" xmlns="http://www.w3.org/2000/svg" xmlns:xlink="http://www.w3.org/1999/xlink" viewBox="0 0 32 32" xml:space="preserve" width="80px" height="80px" fill="#000000">
<g id="SVGRepo_bgCarrier" stroke-width="0"/>
<g id="SVGRepo_tracerCarrier" stroke-linecap="round" stroke-linejoin="round"/>
<g id="SVGRepo_iconCarrier"> <style type="text/css"> .st0{fill:none;stroke:#ffffff;stroke-width:2;stroke-linecap:round;stroke-linejoin:round;stroke-miterlimit:10;} .st1{fill:none;stroke:#ffffff;stroke-width:2;stroke-linejoin:round;stroke-miterlimit:10;} </style> <path class="st0" d="M17,4c-2.2,0-4,1.8-4,4v6v4l6-3h3c2.2,0,4-1.8,4-4V8c0-2.2-1.8-4-4-4H17z"/> <line class="st0" x1="17" y1="8" x2="20" y2="8"/> <line class="st0" x1="17" y1="11" x2="18" y2="11"/> <path class="st0" d="M25.3,24.6c0,1,0.6,1.8,1.6,2.1c1.1,0.3,1.9,1.2,2.2,2.3l-10,0c0.2-1.1,1.1-2,2.1-2.3c0.9-0.3,1.6-1.1,1.6-2.1 v0"/> <path class="st0" d="M24,25L24,25c-1.1,0-2-0.9-2-2v-2c0-1.1,0.9-2,2-2h0c1.1,0,2,0.9,2,2v2C26,24.1,25.1,25,24,25z"/> <path class="st0" d="M9.3,24.6c0,1,0.6,1.8,1.6,2.1c1.1,0.3,1.9,1.2,2.2,2.3L3,29c0.2-1.1,1.1-2,2.1-2.3c0.9-0.3,1.6-1.1,1.6-2.1v0"/> <path class="st0" d="M8,25L8,25c-1.1,0-2-0.9-2-2v-2c0-1.1,0.9-2,2-2h0c1.1,0,2,0.9,2,2v2C10,24.1,9.1,25,8,25z"/> </g>
</svg>